# xmcd
# 
# Track frame offsets:
#     182
#     26887
#     54557
#     73750
#     101202
#     118447
#     145272
#     173640
#     192830
#     205137
#     222070
#     246847
# 
# Disc length: 3662
# 
# Revision: 16
# Processed by: cddbd v1.5.2PL0 Copyright (c) Steve Scherf et al.
# Submitted via: fre:ac v1.1beta1pre5
# 
DISCID=bb0e4c0c
DTITLE=Kenny Wayne Shepherd - Ledbetter Heights
DYEAR=1997
DGENRE=Blues
TTITLE0=Born With a Broken Heart
TTITLE1=Deja Voodoo
TTITLE2=Aberdeen
TTITLE3=Shame, Shame, Shame
TTITLE4=One Foot on the Path
TTITLE5=Everybody Gets the Blues
TTITLE6=While We Cry (Live)
TTITLE7=I'm Leaving You (Commit a Crime)
TTITLE8=(Let Me Up) I've Had Enough
TTITLE9=Riverside
TTITLE10=What's Goin' Down
TTITLE11=Ledbetter Heights
EXTD=YEAR: 1997
EXTT0=
EXTT1=
EXTT2=
EXTT3=
EXTT4=
EXTT5=
EXTT6=
EXTT7=
EXTT8=
EXTT9=
EXTT10=
EXTT11=
PLAYORDER=
